<svg width="28" height="28" viewBox="0 0 28 28" fill="none" xmlns="http://www.w3.org/2000/svg">
<path d="M9.7507 4H18.0793C21.2521 4 23.83 6.5779 23.83 9.7507V18.0793C23.83 19.6045 23.2241 21.0672 22.1457 22.1457C21.0672 23.2241 19.6045 23.83 18.0793 23.83H9.7507C6.5779 23.83 4 21.2521 4 18.0793V9.7507C4 8.22552 4.60588 6.76281 5.68434 5.68434C6.76281 4.60588 8.22552 4 9.7507 4ZM9.5524 5.983C8.60574 5.983 7.69785 6.35906 7.02845 7.02845C6.35906 7.69785 5.983 8.60574 5.983 9.5524V18.2776C5.983 20.2507 7.57932 21.847 9.5524 21.847H18.2776C19.2243 21.847 20.1322 21.4709 20.8015 20.8015C21.4709 20.1322 21.847 19.2243 21.847 18.2776V9.5524C21.847 7.57931 20.2507 5.983 18.2776 5.983H9.5524ZM19.1204 7.47025C19.4491 7.47025 19.7643 7.60083 19.9967 7.83325C20.2292 8.06568 20.3598 8.38092 20.3598 8.70963C20.3598 9.03833 20.2292 9.35357 19.9967 9.586C19.7643 9.81842 19.4491 9.949 19.1204 9.949C18.7917 9.949 18.4764 9.81842 18.244 9.586C18.0116 9.35357 17.881 9.03833 17.881 8.70963C17.881 8.38092 18.0116 8.06568 18.244 7.83325C18.4764 7.60083 18.7917 7.47025 19.1204 7.47025ZM13.915 8.9575C15.2298 8.9575 16.4908 9.47981 17.4205 10.4095C18.3502 11.3392 18.8725 12.6002 18.8725 13.915C18.8725 15.2298 18.3502 16.4908 17.4205 17.4205C16.4908 18.3502 15.2298 18.8725 13.915 18.8725C12.6002 18.8725 11.3392 18.3502 10.4095 17.4205C9.47981 16.4908 8.9575 15.2298 8.9575 13.915C8.9575 12.6002 9.47981 11.3392 10.4095 10.4095C11.3392 9.47981 12.6002 8.9575 13.915 8.9575ZM13.915 10.9405C13.1261 10.9405 12.3695 11.2539 11.8117 11.8117C11.2539 12.3695 10.9405 13.1261 10.9405 13.915C10.9405 14.7039 11.2539 15.4605 11.8117 16.0183C12.3695 16.5761 13.1261 16.8895 13.915 16.8895C14.7039 16.8895 15.4605 16.5761 16.0183 16.0183C16.5761 15.4605 16.8895 14.7039 16.8895 13.915C16.8895 13.1261 16.5761 12.3695 16.0183 11.8117C15.4605 11.2539 14.7039 10.9405 13.915 10.9405Z" fill="white"/>
</svg>
