<svg width="28" height="28" viewBox="0 0 28 28" fill="none" xmlns="http://www.w3.org/2000/svg">
<path d="M25.3333 6.33333C24.4745 6.74167 23.5488 7.01 22.5896 7.13833C23.5711 6.52 24.3295 5.54 24.6864 4.36167C23.7607 4.945 22.7345 5.35333 21.6526 5.58667C20.7715 4.58333 19.5335 4 18.1281 4C15.507 4 13.3655 6.24 13.3655 9.005C13.3655 9.40167 13.4101 9.78667 13.4882 10.1483C9.51753 9.93833 5.98184 7.94333 3.62843 4.92167C3.21574 5.65667 2.98152 6.52 2.98152 7.43C2.98152 9.16833 3.81804 10.7083 5.11186 11.5833C4.31995 11.5833 3.58381 11.35 2.9369 11V11.035C2.9369 13.4617 4.58764 15.4917 6.77374 15.9467C6.07188 16.1476 5.33503 16.1755 4.6211 16.0283C4.92404 17.0229 5.51733 17.8931 6.31758 18.5168C7.11783 19.1404 8.08479 19.486 9.08254 19.505C7.39124 20.9055 5.29477 21.6625 3.13767 21.6517C2.75844 21.6517 2.37922 21.6283 2 21.5817C4.11918 23.005 6.6399 23.8333 9.33907 23.8333C18.1281 23.8333 22.9576 16.2033 22.9576 9.58833C22.9576 9.36667 22.9576 9.15667 22.9465 8.935C23.8834 8.235 24.6864 7.34833 25.3333 6.33333Z" fill="white"/>
</svg>
