<svg width="17" height="17" viewBox="0 0 17 17" fill="none" xmlns="http://www.w3.org/2000/svg">
<path d="M16.6376 8.50676C16.6377 8.3872 16.6143 8.26879 16.5686 8.1583C16.5229 8.04782 16.4558 7.94743 16.3713 7.86289C16.2867 7.77835 16.1863 7.71131 16.0759 7.66561C15.9654 7.61991 15.847 7.59645 15.7274 7.59658L9.42068 7.59012L9.42068 1.27694C9.42068 1.15741 9.39714 1.03906 9.3514 0.928627C9.30566 0.818199 9.23861 0.717861 9.15409 0.633343C9.06958 0.548824 8.96924 0.48178 8.85881 0.436039C8.74838 0.390298 8.63002 0.366756 8.5105 0.366756C8.39097 0.366756 8.27261 0.390298 8.16219 0.436039C8.05176 0.48178 7.95142 0.548824 7.8669 0.633343C7.78238 0.717861 7.71534 0.818199 7.6696 0.928627C7.62386 1.03906 7.60031 1.15741 7.60031 1.27694L7.60032 7.59012L1.28713 7.59012C1.16761 7.59012 1.04925 7.61366 0.93882 7.65941C0.828391 7.70515 0.728054 7.77219 0.643536 7.85671C0.559018 7.94123 0.491974 8.04156 0.446233 8.15199C0.400491 8.26242 0.376949 8.38078 0.376949 8.5003C0.376949 8.61983 0.400492 8.73819 0.446233 8.84862C0.491974 8.95904 0.559018 9.05938 0.643536 9.1439C0.728054 9.22842 0.828392 9.29546 0.938821 9.3412C1.04925 9.38694 1.16761 9.41049 1.28713 9.41049L7.60032 9.41049L7.60031 15.7237C7.60031 15.8432 7.62386 15.9616 7.6696 16.072C7.71534 16.1824 7.78238 16.2827 7.8669 16.3673C7.95142 16.4518 8.05176 16.5188 8.16219 16.5646C8.27262 16.6103 8.39097 16.6339 8.5105 16.6339C8.63003 16.6339 8.74838 16.6103 8.85881 16.5646C8.96924 16.5188 9.06958 16.4518 9.15409 16.3673C9.23861 16.2827 9.30566 16.1824 9.3514 16.072C9.39714 15.9616 9.42068 15.8432 9.42068 15.7237L9.42068 9.41049L15.7339 9.41049C16.2245 9.41049 16.6376 8.99735 16.6376 8.50676Z" fill="white"/>
</svg>
