<svg width="43" height="43" viewBox="0 0 43 43" fill="none" xmlns="http://www.w3.org/2000/svg">
<path d="M26.875 34.9375H2.6875V26.875C4.11304 26.875 5.48019 26.3087 6.4882 25.3007C7.49621 24.2927 8.0625 22.9255 8.0625 21.5C8.0625 20.0745 7.49621 18.7073 6.4882 17.6993C5.48019 16.6913 4.11304 16.125 2.6875 16.125V8.0625H26.875V14.7812H29.5625V8.0625H40.3125V16.125C38.887 16.125 37.5198 16.6913 36.5118 17.6993C35.5038 18.7073 34.9375 20.0745 34.9375 21.5C34.9375 22.9255 35.5038 24.2927 36.5118 25.3007C37.5198 26.3087 38.887 26.875 40.3125 26.875V34.9375H29.5625V28.2188H26.875V34.9375ZM26.875 17.4688V25.5312H29.5625V17.4688H26.875Z" fill="black"/>
</svg>
