<svg width="27" height="27" viewBox="0 0 27 27" fill="none" xmlns="http://www.w3.org/2000/svg">
<path fill-rule="evenodd" clip-rule="evenodd" d="M0 6.32812C0 5.99246 0.133342 5.67054 0.370693 5.43319C0.608044 5.19584 0.92996 5.0625 1.26562 5.0625H25.7344C26.07 5.0625 26.392 5.19584 26.6293 5.43319C26.8667 5.67054 27 5.99246 27 6.32812C27 6.66379 26.8667 6.98571 26.6293 7.22306C26.392 7.46041 26.07 7.59375 25.7344 7.59375H1.26562C0.92996 7.59375 0.608044 7.46041 0.370693 7.22306C0.133342 6.98571 0 6.66379 0 6.32812ZM0 13.5C0 13.1643 0.133342 12.8424 0.370693 12.6051C0.608044 12.3677 0.92996 12.2344 1.26562 12.2344H25.7344C26.07 12.2344 26.392 12.3677 26.6293 12.6051C26.8667 12.8424 27 13.1643 27 13.5C27 13.8357 26.8667 14.1576 26.6293 14.3949C26.392 14.6323 26.07 14.7656 25.7344 14.7656H1.26562C0.92996 14.7656 0.608044 14.6323 0.370693 14.3949C0.133342 14.1576 0 13.8357 0 13.5ZM1.26562 19.4062C0.92996 19.4062 0.608044 19.5396 0.370693 19.7769C0.133342 20.0143 0 20.3362 0 20.6719C0 21.0075 0.133342 21.3295 0.370693 21.5668C0.608044 21.8042 0.92996 21.9375 1.26562 21.9375H25.7344C26.07 21.9375 26.392 21.8042 26.6293 21.5668C26.8667 21.3295 27 21.0075 27 20.6719C27 20.3362 26.8667 20.0143 26.6293 19.7769C26.392 19.5396 26.07 19.4062 25.7344 19.4062H1.26562Z" fill="white"/>
</svg>
